<?xml version="1.0" encoding="UTF-8" standalone="no"?>
<!-- Created with Inkscape (http://www.inkscape.org/) -->

<svg
   xmlns:dc="http://purl.org/dc/elements/1.1/"
   xmlns:cc="http://creativecommons.org/ns#"
   xmlns:rdf="http://www.w3.org/1999/02/22-rdf-syntax-ns#"
   xmlns:svg="http://www.w3.org/2000/svg"
   xmlns="http://www.w3.org/2000/svg"
   xmlns:sodipodi="http://sodipodi.sourceforge.net/DTD/sodipodi-0.dtd"
   xmlns:inkscape="http://www.inkscape.org/namespaces/inkscape"
   width="200"
   height="200"
   viewBox="0 0 199.99999 199.99999"
   id="svg2"
   version="1.1"
   inkscape:version="0.91 r13725"
   sodipodi:docname="candyshop.svg">
  <defs
     id="defs4" />
  <sodipodi:namedview
     id="base"
     pagecolor="#ffffff"
     bordercolor="#666666"
     borderopacity="1.0"
     inkscape:pageopacity="0.0"
     inkscape:pageshadow="2"
     inkscape:zoom="5.6"
     inkscape:cx="99.938134"
     inkscape:cy="34.883709"
     inkscape:document-units="px"
     inkscape:current-layer="layer1"
     showgrid="false"
     inkscape:window-width="1600"
     inkscape:window-height="836"
     inkscape:window-x="0"
     inkscape:window-y="27"
     inkscape:window-maximized="1"
     units="px" />
  <metadata
     id="metadata7">
    <rdf:RDF>
      <cc:Work
         rdf:about="">
        <dc:format>image/svg+xml</dc:format>
        <dc:type
           rdf:resource="http://purl.org/dc/dcmitype/StillImage" />
        <dc:title></dc:title>
      </cc:Work>
    </rdf:RDF>
  </metadata>
  <g
     inkscape:label="Capa 1"
     inkscape:groupmode="layer"
     id="layer1"
     transform="translate(0,-852.36225)">
    <path
       inkscape:connector-curvature="0"
       id="path4192"
       d="m 11.114414,1050.9999 c -4.2869535,-2.2206 -7.4240143,-5.3362 -8.9540855,-8.8926 -1.1052051,-2.5688 -1.34486663,-18.3825 -1.34486663,-88.7388 0,-95.28343 -0.40022709,-89.59682 6.68243093,-94.94713 l 3.4638222,-2.61659 88.919858,0 88.919857,0 3.46383,2.61659 c 1.90509,1.43913 4.29834,4.28056 5.31832,6.31428 1.7491,3.48748 1.83761,6.14148 1.55668,46.6834 2.04044,71.91924 -0.19117,45.86988 -0.19454,97.75655 -0.002,33.9494 1.37907,32.7854 -5.77184,38.4458 -20.95484,7.4317 -67.21945,4.587 -92.15743,4.6574 -77.409652,0.2184 -87.28263,0.078 -89.902036,-1.2789 z"
       style="fill:#cecece;fill-opacity:1"
       sodipodi:nodetypes="sssscccssccccs" />
    <path
       inkscape:connector-curvature="0"
       id="path4184"
       d="M 147.20908,908.28449 C 96.452545,887.28748 39.903901,900.88556 4.8325859,942.52134 l -3.5389251,5.42633 -0.963463,-42.34061 c -0.9654434,-42.42768 0.28276999,-42.59666 2.4888251,-45.65971 1.2175716,-1.69058 4.1155692,-3.98557 6.4400035,-5.1 4.1857496,-2.00682 5.0507436,-2.02623 90.2706696,-2.02623 83.780394,0 86.144464,0.0505 89.846164,1.92086 2.09095,1.05647 4.83203,3.35148 6.09126,5.09999 l 2.28952,3.17915 1.49759,42.74284 0.25905,44.2148 -3.6824,-4.38623 c -1.34505,-1.60211 -3.40144,-4.22571 -4.57176,-5.82857 -3.13768,-4.2973 -16.28605,-15.54098 -24.5446,-20.98903 -8.35135,-5.31461 -12.67059,-7.68491 -19.50544,-10.49044 z"
       style="fill:#dddddd;fill-opacity:1"
       sodipodi:nodetypes="cscsssssscccsscc" />
    <path
       inkscape:connector-curvature="0"
       id="path4178"
       d="m 195.38604,895.85461 c -22.10464,-16.65596 -49.93109,-27.78833 -77.51233,-31.00991 -12.58652,-1.47015 -35.347822,-0.54494 -47.694727,1.93872 -23.723704,4.77216 -46.066415,13.85331 -68.9053678,32.10018 -1.81364649,1.44899 -1.07044174,-0.12588 -1.15839086,-17.67556 -0.08002776,-15.96932 0.7419934,-18.80516 2.57894386,-21.23881 2.9232253,-3.87276 7.9016788,-5.71314 12.2908968,-6.72135 2.14994,-0.49383 40.632318,-0.88457 87.219975,-0.8856 78.79458,-0.002 83.59013,0.096 87.33646,1.78145 4.28967,1.9298 8.96229,6.76742 9.80274,10.1489 0.28855,1.16097 0.39876,9.40253 0.24492,18.31457 l -0.27971,16.20372 z"
       style="fill:#ebebeb;fill-opacity:1"
       sodipodi:nodetypes="ssssssssssscs" />
    <path
       inkscape:connector-curvature="0"
       id="path4198"
       d="m 160.57144,620.21939 0,-128 128,0 128,0 0,128 0,128 -128,0 -128,0 0,-128 z"
       style="fill:#fefefd" />
    <path
       inkscape:connector-curvature="0"
       id="path4182"
       d="m 11.222632,1050.4341 c -2.0812455,-3.509 -2.5079859,-45.6537 11.552797,-66.41418 6.578261,-9.68125 9.341673,-12.33767 11.205813,-14.12067 8.134618,-7.82633 16.649617,-13.45462 26.328255,-17.40258 12.288851,-5.01268 16.661832,-5.78267 32.421593,-5.70873 20.78845,-0.0591 32.33068,4.93677 44.32439,11.30236 -4.956,-9.29744 2.62532,-23.28615 5.03328,-27.84529 2.89447,-3.27592 3.79148,-4.18798 6.81909,-5.5578 -0.4117,0 -0.62369,2.2149 -0.47113,4.92201 l 0.2774,4.922 6.65372,0.27546 6.65372,0.27546 0,7.11967 0,7.11968 6.81867,-0.63119 6.81866,-0.63122 -0.30468,4.95515 c -0.16756,2.72532 -0.312,4.41437 -0.50306,5.89265 -0.34036,2.63347 -0.0925,3.10763 3.17375,2.99051 6.14794,-0.55786 4.57392,-0.55306 8.542,-0.6467 2.23895,0 2.25958,0.0774 1.93686,7.26582 l -0.3262,7.26582 5.91122,-0.23816 5.9112,-0.23815 -2.65535,2.8313 c -1.46046,1.55722 -4.22635,4.27035 -8.456,6.52049 -4.22965,2.25014 -10.47537,5.9299 -22.60733,2.54325 2.77096,6.77328 9.17683,21.82284 11.01661,33.58254 1.46339,9.9107 2.71501,27.9714 -1.08713,30.1235 -2.92709,1.6568 -48.99123,1.4766 -82.240761,1.2605 -33.249527,-0.2159 -80.666142,1.7756 -82.747387,-1.7335 z"
       style="fill:#af5d7b;fill-opacity:1"
       sodipodi:nodetypes="zccsccccscccccccssccscccszccszz" />
    <path
       style="fill:#512440;fill-opacity:1"
       d="m 129.01418,999.35127 c -5.10576,-0.11863 -10.28808,2.35223 -12.99206,7.47113 -2.33571,4.4217 -1.86581,11.8975 1.00978,16.0818 l 2.07174,3.0157 9.55054,0 9.55236,0 2.05194,-2.9877 c 2.77926,-4.0442 3.35845,-11.0015 1.29057,-15.5167 -2.39865,-5.2374 -7.42911,-7.94562 -12.53487,-8.06423 z m -69.281967,0.85233 c -5.105758,-0.1187 -10.288079,2.3522 -12.992055,7.4711 -2.335715,4.4217 -1.86761,11.8975 1.007973,16.0818 l 2.073545,3.0157 9.550546,0 9.550547,0 2.053746,-2.9877 c 2.779259,-4.0442 3.356651,-11.0015 1.288765,-15.5167 -2.398654,-5.2375 -7.427309,-7.9456 -12.533067,-8.0642 z m 21.46803,29.8286 c -1.337087,0 -2.014146,0.8101 -2.014146,2.4152 0,1.8852 3.225552,4.1813 8.28878,5.9027 6.81507,2.3169 21.201643,-1.6861 21.201643,-5.899 0,-2.8341 -1.9193,-3.1158 -6.50863,-0.9586 -5.349638,2.5145 -11.885645,2.5089 -16.656761,-0.013 -1.831887,-0.9683 -3.270929,-1.4502 -4.310886,-1.4472 z"
       id="path4168"
       inkscape:connector-curvature="0" />
  </g>
</svg>
