<?xml version="1.0" encoding="UTF-8" standalone="no"?>
<!-- Created with Inkscape (http://www.inkscape.org/) -->

<svg
   xmlns:dc="http://purl.org/dc/elements/1.1/"
   xmlns:cc="http://creativecommons.org/ns#"
   xmlns:rdf="http://www.w3.org/1999/02/22-rdf-syntax-ns#"
   xmlns:svg="http://www.w3.org/2000/svg"
   xmlns="http://www.w3.org/2000/svg"
   xmlns:sodipodi="http://sodipodi.sourceforge.net/DTD/sodipodi-0.dtd"
   xmlns:inkscape="http://www.inkscape.org/namespaces/inkscape"
   width="885"
   height="100"
   viewBox="0 0 884.99996 99.999995"
   id="svg2"
   version="1.1"
   inkscape:version="0.91 r13725"
   sodipodi:docname="banner.svg">
  <defs
     id="defs4" />
  <sodipodi:namedview
     id="base"
     pagecolor="#ffffff"
     bordercolor="#666666"
     borderopacity="1.0"
     inkscape:pageopacity="0.0"
     inkscape:pageshadow="2"
     inkscape:zoom="0.98994949"
     inkscape:cx="457.94304"
     inkscape:cy="-74.76452"
     inkscape:document-units="px"
     inkscape:current-layer="layer1"
     showgrid="false"
     inkscape:window-width="1600"
     inkscape:window-height="836"
     inkscape:window-x="0"
     inkscape:window-y="27"
     inkscape:window-maximized="1"
     units="px" />
  <metadata
     id="metadata7">
    <rdf:RDF>
      <cc:Work
         rdf:about="">
        <dc:format>image/svg+xml</dc:format>
        <dc:type
           rdf:resource="http://purl.org/dc/dcmitype/StillImage" />
        <dc:title></dc:title>
      </cc:Work>
    </rdf:RDF>
  </metadata>
  <g
     inkscape:label="Capa 1"
     inkscape:groupmode="layer"
     id="layer1"
     transform="translate(0,-952.36224)">
    <path
       inkscape:connector-curvature="0"
       id="path4198"
       d="m 160.57144,620.21939 0,-128 128,0 128,0 0,128 0,128 -128,0 -128,0 0,-128 z"
       style="fill:#fefefd" />
    <g
       id="g4139"
       transform="matrix(0.44999999,0,0,0.44911537,786.99991,574.55325)">
      <path
         sodipodi:nodetypes="sssscccssccccs"
         style="fill:#cecece;fill-opacity:1"
         d="m 11.114414,1050.9999 c -4.2869535,-2.2206 -7.4240143,-5.3362 -8.9540855,-8.8926 -1.1052051,-2.5688 -1.34486663,-18.3825 -1.34486663,-88.7388 0,-95.28343 -0.40022709,-89.59682 6.68243093,-94.94713 l 3.4638222,-2.61659 88.919858,0 88.919857,0 3.46383,2.61659 c 1.90509,1.43913 4.29834,4.28056 5.31832,6.31428 1.7491,3.48748 1.83761,6.14148 1.55668,46.6834 2.04044,71.91924 -0.19117,45.86988 -0.19454,97.75655 -0.002,33.9494 1.37907,32.7854 -5.77184,38.4458 -20.95484,7.4317 -67.21945,4.587 -92.15743,4.6574 -77.409652,0.2184 -87.28263,0.078 -89.902036,-1.2789 z"
         id="path4192"
         inkscape:connector-curvature="0" />
      <path
         sodipodi:nodetypes="cscsssssscccsscc"
         style="fill:#dddddd;fill-opacity:1"
         d="M 147.20908,908.28449 C 96.452545,887.28748 39.903901,900.88556 4.8325859,942.52134 l -3.5389251,5.42633 -0.963463,-42.34061 c -0.9654434,-42.42768 0.28276999,-42.59666 2.4888251,-45.65971 1.2175716,-1.69058 4.1155692,-3.98557 6.4400035,-5.1 4.1857496,-2.00682 5.0507436,-2.02623 90.2706696,-2.02623 83.780394,0 86.144464,0.0505 89.846164,1.92086 2.09095,1.05647 4.83203,3.35148 6.09126,5.09999 l 2.28952,3.17915 1.49759,42.74284 0.25905,44.2148 -3.6824,-4.38623 c -1.34505,-1.60211 -3.40144,-4.22571 -4.57176,-5.82857 -3.13768,-4.2973 -16.28605,-15.54098 -24.5446,-20.98903 -8.35135,-5.31461 -12.67059,-7.68491 -19.50544,-10.49044 z"
         id="path4184"
         inkscape:connector-curvature="0" />
      <path
         sodipodi:nodetypes="ssssssssssscs"
         style="fill:#ebebeb;fill-opacity:1"
         d="m 195.38604,895.85461 c -22.10464,-16.65596 -49.93109,-27.78833 -77.51233,-31.00991 -12.58652,-1.47015 -35.347822,-0.54494 -47.694727,1.93872 -23.723704,4.77216 -46.066415,13.85331 -68.9053678,32.10018 -1.81364649,1.44899 -1.07044174,-0.12588 -1.15839086,-17.67556 -0.08002776,-15.96932 0.7419934,-18.80516 2.57894386,-21.23881 2.9232253,-3.87276 7.9016788,-5.71314 12.2908968,-6.72135 2.14994,-0.49383 40.632318,-0.88457 87.219975,-0.8856 78.79458,-0.002 83.59013,0.096 87.33646,1.78145 4.28967,1.9298 8.96229,6.76742 9.80274,10.1489 0.28855,1.16097 0.39876,9.40253 0.24492,18.31457 l -0.27971,16.20372 z"
         id="path4178"
         inkscape:connector-curvature="0" />
      <path
         sodipodi:nodetypes="zccsccccscccccccssccscccszccszz"
         style="fill:#af5d7b;fill-opacity:1"
         d="m 11.222632,1050.4341 c -2.0812455,-3.509 -2.5079859,-45.6537 11.552797,-66.41418 6.578261,-9.68125 9.341673,-12.33767 11.205813,-14.12067 8.134618,-7.82633 16.649617,-13.45462 26.328255,-17.40258 12.288851,-5.01268 16.661832,-5.78267 32.421593,-5.70873 20.78845,-0.0591 32.33068,4.93677 44.32439,11.30236 -4.956,-9.29744 2.62532,-23.28615 5.03328,-27.84529 2.89447,-3.27592 3.79148,-4.18798 6.81909,-5.5578 -0.4117,0 -0.62369,2.2149 -0.47113,4.92201 l 0.2774,4.922 6.65372,0.27546 6.65372,0.27546 0,7.11967 0,7.11968 6.81867,-0.63119 6.81866,-0.63122 -0.30468,4.95515 c -0.16756,2.72532 -0.312,4.41437 -0.50306,5.89265 -0.34036,2.63347 -0.0925,3.10763 3.17375,2.99051 6.14794,-0.55786 4.57392,-0.55306 8.542,-0.6467 2.23895,0 2.25958,0.0774 1.93686,7.26582 l -0.3262,7.26582 5.91122,-0.23816 5.9112,-0.23815 -2.65535,2.8313 c -1.46046,1.55722 -4.22635,4.27035 -8.456,6.52049 -4.22965,2.25014 -10.47537,5.9299 -22.60733,2.54325 2.77096,6.77328 9.17683,21.82284 11.01661,33.58254 1.46339,9.9107 2.71501,27.9714 -1.08713,30.1235 -2.92709,1.6568 -48.99123,1.4766 -82.240761,1.2605 -33.249527,-0.2159 -80.666142,1.7756 -82.747387,-1.7335 z"
         id="path4182"
         inkscape:connector-curvature="0" />
      <path
         inkscape:connector-curvature="0"
         id="path4168"
         d="m 129.01418,999.35127 c -5.10576,-0.11863 -10.28808,2.35223 -12.99206,7.47113 -2.33571,4.4217 -1.86581,11.8975 1.00978,16.0818 l 2.07174,3.0157 9.55054,0 9.55236,0 2.05194,-2.9877 c 2.77926,-4.0442 3.35845,-11.0015 1.29057,-15.5167 -2.39865,-5.2374 -7.42911,-7.94562 -12.53487,-8.06423 z m -69.281967,0.85233 c -5.105758,-0.1187 -10.288079,2.3522 -12.992055,7.4711 -2.335715,4.4217 -1.86761,11.8975 1.007973,16.0818 l 2.073545,3.0157 9.550546,0 9.550547,0 2.053746,-2.9877 c 2.779259,-4.0442 3.356651,-11.0015 1.288765,-15.5167 -2.398654,-5.2375 -7.427309,-7.9456 -12.533067,-8.0642 z m 21.46803,29.8286 c -1.337087,0 -2.014146,0.8101 -2.014146,2.4152 0,1.8852 3.225552,4.1813 8.28878,5.9027 6.81507,2.3169 21.201643,-1.6861 21.201643,-5.899 0,-2.8341 -1.9193,-3.1158 -6.50863,-0.9586 -5.349638,2.5145 -11.885645,2.5089 -16.656761,-0.013 -1.831887,-0.9683 -3.270929,-1.4502 -4.310886,-1.4472 z"
         style="fill:#512440;fill-opacity:1" />
    </g>
    <g
       style="font-style:normal;font-weight:normal;font-size:40px;line-height:125%;font-family:sans-serif;letter-spacing:0px;word-spacing:0px;fill:#000000;fill-opacity:1;stroke:none;stroke-width:1px;stroke-linecap:butt;stroke-linejoin:miter;stroke-opacity:1"
       id="text4146">
      <path
         d="m 43.586689,979.77221 c -12.359998,0 -20.639997,8.94 -20.639997,21.47999 0,12.6 8.159999,21.48 20.399997,21.48 12.599998,0 20.879997,-9.18 20.879997,-21.9 0,-12.47999 -8.279999,-21.05999 -20.639997,-21.05999 z m -0.3,6.9 c 8.219999,0 13.319998,6 13.319998,14.57999 0,8.52 -4.619999,14.46 -12.779998,14.46 -8.279999,0 -13.259998,-6.42 -13.259998,-14.94 0,-8.39999 4.679999,-14.09999 12.719998,-14.09999 z"
         style="font-style:normal;font-variant:normal;font-weight:bold;font-stretch:normal;font-size:59.99999237px;line-height:125%;font-family:Cantarell;-inkscape-font-specification:'Cantarell, Bold';text-align:start;writing-mode:lr-tb;text-anchor:start"
         id="path4151" />
      <path
         d="m 68.881371,1007.5522 c 0,9.24 5.7,15.18 14.939999,15.18 2.639999,0 5.279999,-0.78 7.859999,-2.22 l 0.48,1.62 5.279999,0 0,-43.07999 -7.319999,0 0,14.76 c -1.8,-0.84 -4.08,-1.2 -6.899999,-1.2 -8.579999,0 -14.339999,6.06 -14.339999,14.93999 z m 16.199998,9.48 c -5.879999,0 -8.819998,-3.06 -8.819998,-9.06 0,-6.42 2.879999,-9.65999 8.639998,-9.65999 1.98,0 3.72,0.3 5.22,0.96 l 0,16.31999 c -1.5,0.96 -3.18,1.44 -5.04,1.44 z"
         style="font-style:normal;font-variant:normal;font-weight:bold;font-stretch:normal;font-size:59.99999237px;line-height:125%;font-family:Cantarell;-inkscape-font-specification:'Cantarell, Bold';text-align:start;writing-mode:lr-tb;text-anchor:start"
         id="path4153" />
      <path
         d="m 118.68605,1022.7322 c 9.12,0 15.12,-6.12 15.12,-15.18 0,-8.99999 -5.88,-14.93999 -15,-14.93999 -9.24,0 -15.12,5.88 -15.12,15.05999 0,9 5.88,15.06 15,15.06 z m 0,-24.41999 c 4.98,0 7.74,4.13999 7.74,9.35999 0,5.28 -2.58,9.3 -7.74,9.3 -4.92,0 -7.62,-4.2 -7.62,-9.3 0,-5.04 2.7,-9.35999 7.62,-9.35999 z"
         style="font-style:normal;font-variant:normal;font-weight:bold;font-stretch:normal;font-size:59.99999237px;line-height:125%;font-family:Cantarell;-inkscape-font-specification:'Cantarell, Bold';text-align:start;writing-mode:lr-tb;text-anchor:start"
         id="path4155" />
      <path
         d="m 153.37355,1022.7322 c 9.12,0 15.12,-6.12 15.12,-15.18 0,-8.99999 -5.88,-14.93999 -15,-14.93999 -9.24,0 -15.12,5.88 -15.12,15.05999 0,9 5.88,15.06 15,15.06 z m 0,-24.41999 c 4.98,0 7.74,4.13999 7.74,9.35999 0,5.28 -2.58,9.3 -7.74,9.3 -4.92,0 -7.62,-4.2 -7.62,-9.3 0,-5.04 2.7,-9.35999 7.62,-9.35999 z"
         style="font-style:normal;font-variant:normal;font-weight:bold;font-stretch:normal;font-size:59.99999237px;line-height:125%;font-family:Cantarell;-inkscape-font-specification:'Cantarell, Bold';text-align:start;writing-mode:lr-tb;text-anchor:start"
         id="path4157" />
      <path
         d="m 189.5873,1001.0122 c 0,13.02 8.7,21.72 21.9,21.72 3.78,0 8.1,-0.96 12.84,-2.82 l 1.02,-0.42 -2.4,-6.06 -1.08,0.48 c -3.54,1.38 -6.6,2.04 -9.06,2.04 -9.54,0 -15.84,-5.64 -15.84,-14.94 0,-8.51999 5.88,-14.45999 14.76,-14.45999 4.08,0 5.94,0.3 9.48,1.5 l 1.14,0.42 2.52,-5.88 -1.26,-0.48 c -3.78,-1.56 -7.74,-2.34 -12,-2.34 -12.96,0 -22.02,8.34 -22.02,21.23999 z"
         style="font-style:normal;font-variant:normal;font-weight:bold;font-stretch:normal;font-size:59.99999237px;line-height:125%;font-family:Cantarell;-inkscape-font-specification:'Cantarell, Bold';text-align:start;writing-mode:lr-tb;text-anchor:start"
         id="path4159" />
      <path
         d="m 255.27978,1004.3122 c 0,-8.33999 -4.26,-11.69999 -13.26,-11.69999 -2.52,0 -5.75999,0.66 -9.71999,1.98 l 1.14,5.04 c 2.7,-1.02 5.15999,-1.56 7.43999,-1.56 5.46,0 7.02,1.26 7.02,6.35999 l -5.94,0.3 c -6.71999,0.36 -12.17999,2.94 -12.17999,9.36 0,5.52 4.62,8.64 10.37999,8.64 3.42,0 6.24,-0.9 8.52,-2.64 l 0.84,2.04 5.76,0 0,-17.82 z m -7.38,11.28 c -1.56,0.96 -3.3,1.68 -5.94,1.68 -2.64,0 -4.79999,-1.14 -4.79999,-3.72 0,-2.22 1.85999,-3.48 5.63999,-3.66 l 5.1,-0.36 0,6.06 z"
         style="font-style:normal;font-variant:normal;font-weight:bold;font-stretch:normal;font-size:59.99999237px;line-height:125%;font-family:Cantarell;-inkscape-font-specification:'Cantarell, Bold';text-align:start;writing-mode:lr-tb;text-anchor:start"
         id="path4161" />
      <path
         d="m 289.68603,1005.5122 c 0,-7.85999 -2.4,-12.89999 -10.62,-12.89999 -3.24,0 -6.6,0.84 -9.95999,2.52 l -1.08,-1.86 -5.16,0 0,28.85999 7.37999,0 0,-21.72 c 2.94,-1.07999 5.22,-1.61999 6.9,-1.61999 3.6,0 5.16,2.45999 5.16,5.81999 l 0,17.52 7.38,0 0,-16.62 z"
         style="font-style:normal;font-variant:normal;font-weight:bold;font-stretch:normal;font-size:59.99999237px;line-height:125%;font-family:Cantarell;-inkscape-font-specification:'Cantarell, Bold';text-align:start;writing-mode:lr-tb;text-anchor:start"
         id="path4163" />
      <path
         d="m 295.63916,1007.5522 c 0,9.24 5.7,15.18 14.94,15.18 2.64,0 5.28,-0.78 7.86,-2.22 l 0.48,1.62 5.28,0 0,-43.07999 -7.32,0 0,14.76 c -1.8,-0.84 -4.08,-1.2 -6.9,-1.2 -8.58,0 -14.34,6.06 -14.34,14.93999 z m 16.2,9.48 c -5.88,0 -8.82,-3.06 -8.82,-9.06 0,-6.42 2.88,-9.65999 8.64,-9.65999 1.98,0 3.72,0.3 5.22,0.96 l 0,16.31999 c -1.5,0.96 -3.18,1.44 -5.04,1.44 z"
         style="font-style:normal;font-variant:normal;font-weight:bold;font-stretch:normal;font-size:59.99999237px;line-height:125%;font-family:Cantarell;-inkscape-font-specification:'Cantarell, Bold';text-align:start;writing-mode:lr-tb;text-anchor:start"
         id="path4165" />
      <path
         d="m 328.16385,993.27221 13.08,29.09999 -6.6,15.3 8.1,0 17.69999,-44.39999 -7.61999,0 -7.8,22.13999 -8.58,-22.13999 -8.28,0 z"
         style="font-style:normal;font-variant:normal;font-weight:bold;font-stretch:normal;font-size:59.99999237px;line-height:125%;font-family:Cantarell;-inkscape-font-specification:'Cantarell, Bold';text-align:start;writing-mode:lr-tb;text-anchor:start"
         id="path4167" />
      <path
         d="m 373.77041,1016.7922 c -2.46,0 -6.3,-0.96 -9.66,-2.22 l -2.1,5.52 c 3.3,1.5 7.44,2.64 11.4,2.64 10.98,0 13.14,-5.46 13.14,-8.88 0,-9.9 -16.02,-8.1 -16.02,-12.48 0,-1.67999 0.72,-2.81999 4.98,-2.81999 3,0 6,0.84 7.8,1.37999 l 1.8,-5.63999 c -1.92,-0.6 -6.06,-1.68 -9.66,-1.68 -11.16,0 -12.3,5.64 -12.3,8.45999 0,10.38 16.02,8.88 16.02,12.66 0,1.98 -1.2,3.06 -5.4,3.06 z"
         style="font-style:normal;font-variant:normal;font-weight:bold;font-stretch:normal;font-size:59.99999237px;line-height:125%;font-family:Cantarell;-inkscape-font-specification:'Cantarell, Bold';text-align:start;writing-mode:lr-tb;text-anchor:start"
         id="path4169" />
      <path
         d="m 406.81541,998.73221 c 3.9,0 5.16,2.09999 5.16,5.81999 l 0,17.58 7.38,0 0,-16.62 c 0,-7.85999 -2.22,-12.89999 -10.62,-12.89999 -2.82,0 -5.76,0.66 -8.82,1.92 l 0,-15.48 -7.38,0 0,43.07999 7.38,0 0,-21.84 c 2.76,-1.07999 5.04,-1.55999 6.9,-1.55999 z"
         style="font-style:normal;font-variant:normal;font-weight:bold;font-stretch:normal;font-size:59.99999237px;line-height:125%;font-family:Cantarell;-inkscape-font-specification:'Cantarell, Bold';text-align:start;writing-mode:lr-tb;text-anchor:start"
         id="path4171" />
      <path
         d="m 440.36569,1022.7322 c 9.12,0 15.12,-6.12 15.12,-15.18 0,-8.99999 -5.88,-14.93999 -15,-14.93999 -9.24,0 -15.12,5.88 -15.12,15.05999 0,9 5.88,15.06 15,15.06 z m 0,-24.41999 c 4.98,0 7.74,4.13999 7.74,9.35999 0,5.28 -2.58,9.3 -7.74,9.3 -4.92,0 -7.62,-4.2 -7.62,-9.3 0,-5.04 2.7,-9.35999 7.62,-9.35999 z"
         style="font-style:normal;font-variant:normal;font-weight:bold;font-stretch:normal;font-size:59.99999237px;line-height:125%;font-family:Cantarell;-inkscape-font-specification:'Cantarell, Bold';text-align:start;writing-mode:lr-tb;text-anchor:start"
         id="path4173" />
      <path
         d="m 466.83319,993.27221 -5.04,0 0,44.39999 7.2,0 0,-16.44 c 1.98,1.02 3.78,1.5 6.3,1.5 9.42,0 14.76,-5.58 14.76,-14.88 0,-11.69999 -8.22,-15.23999 -13.8,-15.23999 -3.48,0 -6.48,1.5 -8.46,2.58 l -0.96,-1.92 z m 7.44,5.16 c 4.8,0 8.4,1.91999 8.4,9.41999 0,6.78 -3.84,9.36 -8.64,9.36 -2.04,0 -3.66,-0.66 -4.98,-1.44 l 0,-16.19999 c 1.92,-0.72 3.66,-1.14 5.22,-1.14 z"
         style="font-style:normal;font-variant:normal;font-weight:bold;font-stretch:normal;font-size:59.99999237px;line-height:125%;font-family:Cantarell;-inkscape-font-specification:'Cantarell, Bold';text-align:start;writing-mode:lr-tb;text-anchor:start"
         id="path4175" />
    </g>
  </g>
</svg>
