<?xml version="1.0" encoding="UTF-8" standalone="no"?>
<!-- Created with Inkscape (http://www.inkscape.org/) -->

<svg
   xmlns:dc="http://purl.org/dc/elements/1.1/"
   xmlns:cc="http://creativecommons.org/ns#"
   xmlns:rdf="http://www.w3.org/1999/02/22-rdf-syntax-ns#"
   xmlns:svg="http://www.w3.org/2000/svg"
   xmlns="http://www.w3.org/2000/svg"
   xmlns:sodipodi="http://sodipodi.sourceforge.net/DTD/sodipodi-0.dtd"
   xmlns:inkscape="http://www.inkscape.org/namespaces/inkscape"
   width="213.33333"
   height="213.33333"
   viewBox="0 0 199.99999 199.99999"
   id="svg2"
   version="1.1"
   inkscape:version="0.92.1 r15371"
   sodipodi:docname="logo.svg">
  <defs
     id="defs4" />
  <sodipodi:namedview
     id="base"
     pagecolor="#ffffff"
     bordercolor="#666666"
     borderopacity="1.0"
     inkscape:pageopacity="0.0"
     inkscape:pageshadow="2"
     inkscape:zoom="1.4"
     inkscape:cx="142.49908"
     inkscape:cy="48.957351"
     inkscape:document-units="px"
     inkscape:current-layer="layer1"
     showgrid="false"
     inkscape:window-width="1280"
     inkscape:window-height="976"
     inkscape:window-x="0"
     inkscape:window-y="48"
     inkscape:window-maximized="1"
     units="px" />
  <metadata
     id="metadata7">
    <rdf:RDF>
      <cc:Work
         rdf:about="">
        <dc:format>image/svg+xml</dc:format>
        <dc:type
           rdf:resource="http://purl.org/dc/dcmitype/StillImage" />
        <dc:title />
      </cc:Work>
    </rdf:RDF>
  </metadata>
  <g
     inkscape:label="Capa 1"
     inkscape:groupmode="layer"
     id="layer1"
     transform="translate(0,-852.36225)">
    <path
       inkscape:connector-curvature="0"
       id="path4198"
       d="m 160.57144,620.21939 v -128 h 128 128 v 128 128 h -128 -128 z"
       style="fill:#fefefd" />
    <path
       inkscape:connector-curvature="0"
       id="path4192"
       d="m 22.425864,1038.2755 c -3.741403,-1.938 -6.479246,-4.6571 -7.814603,-7.7609 -0.964558,-2.2419 -1.173721,-16.0432 -1.173721,-77.44606 0,-83.1578 -0.349294,-78.19486 5.832035,-82.8643 l 3.023022,-2.28361 H 99.896649 177.5007 l 3.02303,2.28361 c 1.66265,1.25599 3.75134,3.73582 4.64152,5.51074 1.52651,3.04366 1.60376,5.35992 1.35858,40.74254 1.78077,62.7669 -0.16685,40.03255 -0.16979,85.31618 -0.002,29.6291 1.20357,28.6132 -5.03732,33.5533 -18.28816,6.4859 -58.66521,4.0032 -80.42962,4.0647 -67.558614,0.1906 -76.175172,0.068 -78.461236,-1.1162 z"
       style="fill:#cecece;fill-opacity:1;stroke-width:0.87274152"
       sodipodi:nodetypes="sssscccssccccs" />
    <path
       inkscape:connector-curvature="0"
       id="path4184"
       d="M 141.20133,913.72186 C 96.903994,895.39689 47.551644,907.2645 16.943451,943.60178 l -3.088567,4.73578 -0.840854,-36.95241 c -0.842582,-37.0284 0.246785,-37.17587 2.172101,-39.84912 1.062626,-1.47544 3.591828,-3.47838 5.620459,-4.45098 3.653077,-1.75144 4.407993,-1.76838 78.782961,-1.76838 73.118629,0 75.181849,0.0441 78.412479,1.67641 1.82486,0.92203 4.21711,2.92498 5.31609,4.45098 l 1.99816,2.77457 1.30701,37.30346 0.22609,38.58809 -3.21379,-3.82805 c -1.17388,-1.39823 -2.96858,-3.68795 -3.98996,-5.08683 -2.73839,-3.75044 -14.21351,-13.56326 -21.42109,-18.318 -7.28857,-4.63828 -11.05815,-6.70694 -17.02321,-9.15544 z"
       style="fill:#dddddd;fill-opacity:1;stroke-width:0.87274152"
       sodipodi:nodetypes="cscsssssscccsscc" />
    <path
       inkscape:connector-curvature="0"
       id="path4178"
       d="m 183.24736,902.87378 c -19.29163,-14.53634 -43.57693,-24.25203 -67.64823,-27.06363 -10.98477,-1.28306 -30.849508,-0.47559 -41.625165,1.692 -20.704661,4.16486 -40.204073,12.09036 -60.136575,28.01516 -1.582845,1.26459 -0.934219,-0.10986 -1.010976,-15.4262 -0.06984,-13.93708 0.647569,-16.41204 2.250751,-18.53599 2.551221,-3.37992 6.896124,-4.98609 10.726776,-5.866 1.876342,-0.43098 35.461511,-0.772 76.120489,-0.7729 68.76731,-0.002 72.95258,0.0838 76.22216,1.55475 3.74377,1.68421 7.82176,5.90621 8.55526,8.85736 0.25183,1.01323 0.34801,8.20598 0.21375,15.98389 l -0.24411,14.14166 z"
       style="fill:#ebebeb;fill-opacity:1;stroke-width:0.87274152"
       sodipodi:nodetypes="ssssssssssscs" />
    <path
       inkscape:connector-curvature="0"
       id="path4182"
       d="m 22.52031,1037.7817 c -1.816389,-3.0624 -2.188824,-39.84386 10.082606,-57.96239 5.741121,-8.44923 8.152865,-10.7676 9.779778,-12.32369 7.099419,-6.83037 14.530812,-11.74241 22.977761,-15.18796 10.724991,-4.37477 14.541473,-5.04677 28.29567,-4.98224 18.142945,-0.0516 28.216325,4.30852 38.683735,9.86403 -4.32531,-8.11426 2.29123,-20.32279 4.39275,-24.30174 2.52613,-2.85903 3.30899,-3.65502 5.95131,-4.85052 -0.35931,0 -0.54432,1.93304 -0.41118,4.29564 l 0.2421,4.29564 5.80698,0.2404 5.80698,0.24041 v 6.21363 6.21364 l 5.95093,-0.55087 5.95093,-0.55089 -0.26591,4.32457 c -0.14623,2.3785 -0.27229,3.8526 -0.43904,5.14276 -0.29704,2.29834 -0.0807,2.71216 2.76986,2.60994 5.36557,-0.48687 3.99185,-0.48268 7.45496,-0.5644 1.95403,0 1.97203,0.0675 1.69038,6.34118 l -0.28469,6.34118 5.15897,-0.20785 5.15895,-0.20784 -2.31743,2.47099 c -1.27461,1.35905 -3.68852,3.72691 -7.37991,5.6907 -3.69139,1.96379 -9.14229,5.17527 -19.73035,2.2196 2.41833,5.91133 8.009,19.04568 9.61465,29.30888 1.27716,8.6495 2.3695,24.4118 -0.94878,26.29 -2.5546,1.446 -42.75668,1.2887 -71.77493,1.1001 -29.018243,-0.1884 -70.400691,1.5497 -72.21708,-1.5129 z"
       style="fill:#af5d7b;fill-opacity:1;stroke-width:0.87274152"
       sodipodi:nodetypes="zccsccccscccccccssccscccszccszz" />
    <path
       style="fill:#512440;fill-opacity:1;stroke-width:0.87274152"
       d="m 125.32188,993.19962 c -4.456,-0.10354 -8.97883,2.05289 -11.33871,6.52036 -2.03847,3.85902 -1.62837,10.38342 0.88128,14.03522 l 1.80809,2.632 h 8.33516 8.33674 l 1.79081,-2.6075 c 2.42558,-3.5296 2.93106,-9.6015 1.12634,-13.5421 -2.09341,-4.57089 -6.4837,-6.93447 -10.93971,-7.03798 z m -60.465245,0.74386 c -4.456007,-0.10359 -8.978833,2.05286 -11.338705,6.52032 -2.038476,3.859 -1.629941,10.3835 0.879699,14.0353 l 1.809669,2.6319 h 8.335158 8.335159 l 1.79239,-2.6075 c 2.425574,-3.5295 2.929488,-9.6015 1.124758,-13.5421 -2.093405,-4.57094 -6.482121,-6.93441 -10.938128,-7.03792 z m 18.736042,26.03262 c -1.166932,0 -1.757829,0.707 -1.757829,2.1079 0,1.6453 2.815073,3.6492 7.233962,5.1515 5.947795,2.0221 18.50355,-1.4715 18.50355,-5.1483 0,-2.4734 -1.67505,-2.7193 -5.68035,-0.8366 -4.668849,2.1945 -10.373093,2.1896 -14.537044,-0.011 -1.598764,-0.8451 -2.854676,-1.2657 -3.762289,-1.2631 z"
       id="path4168"
       inkscape:connector-curvature="0" />
  </g>
</svg>
