<?xml version="1.0" encoding="UTF-8" standalone="no"?>
<!-- Created with Inkscape (http://www.inkscape.org/) -->

<svg
   xmlns:dc="http://purl.org/dc/elements/1.1/"
   xmlns:cc="http://creativecommons.org/ns#"
   xmlns:rdf="http://www.w3.org/1999/02/22-rdf-syntax-ns#"
   xmlns:svg="http://www.w3.org/2000/svg"
   xmlns="http://www.w3.org/2000/svg"
   xmlns:sodipodi="http://sodipodi.sourceforge.net/DTD/sodipodi-0.dtd"
   xmlns:inkscape="http://www.inkscape.org/namespaces/inkscape"
   width="885"
   height="300"
   viewBox="0 0 829.68746 281.25001"
   id="svg2"
   version="1.1"
   inkscape:version="0.92.1 r15371"
   sodipodi:docname="title.svg">
  <defs
     id="defs4" />
  <sodipodi:namedview
     id="base"
     pagecolor="#ffffff"
     bordercolor="#666666"
     borderopacity="1.0"
     inkscape:pageopacity="0.0"
     inkscape:pageshadow="2"
     inkscape:zoom="0.49497475"
     inkscape:cx="217.72364"
     inkscape:cy="232.55672"
     inkscape:document-units="px"
     inkscape:current-layer="layer1"
     showgrid="false"
     inkscape:window-width="1280"
     inkscape:window-height="976"
     inkscape:window-x="0"
     inkscape:window-y="48"
     inkscape:window-maximized="1"
     units="px" />
  <metadata
     id="metadata7">
    <rdf:RDF>
      <cc:Work
         rdf:about="">
        <dc:format>image/svg+xml</dc:format>
        <dc:type
           rdf:resource="http://purl.org/dc/dcmitype/StillImage" />
        <dc:title />
      </cc:Work>
    </rdf:RDF>
  </metadata>
  <g
     inkscape:label="Capa 1"
     inkscape:groupmode="layer"
     id="layer1"
     transform="translate(0,-771.11223)">
    <path
       inkscape:connector-curvature="0"
       id="path4198"
       d="m 160.57144,620.21939 v -128 h 128 128 v 128 128 h -128 -128 z"
       style="fill:#fefefd" />
    <g
       aria-label="Candyshop"
       style="font-style:normal;font-weight:normal;font-size:37.5px;line-height:1.25;font-family:sans-serif;letter-spacing:0px;word-spacing:0px;fill:#565656;fill-opacity:1;stroke:none;stroke-width:0.9375"
       id="text30"
       transform="translate(101.13975,-1.088983e-5)">
      <path
         d="m 74.256536,915.84349 q 0,-7.875 1.8,-15.4125 1.9125,-7.65 5.2875,-14.4 3.375,-6.8625 7.9875,-12.4875 4.725,-5.7375 10.2375,-9.9 5.625004,-4.1625 11.925004,-6.4125 6.3,-2.3625 12.9375,-2.3625 7.7625,0 12.0375,3.2625 4.3875,3.2625 4.3875,9.1125 0,2.25 -0.675,4.6125 -0.5625,2.3625 -1.8,4.725 -1.125,2.25 -2.7,4.3875 -1.575,2.1375 -3.4875,3.7125 -2.925,-0.45 -5.0625,-2.5875 -2.1375,-2.25 -2.7,-5.175 3.9375,-3.2625 6.1875,-6.75 2.3625,-3.6 2.3625,-6.525 0,-4.95 -6.1875,-4.95 -2.5875,0 -5.4,1.125 -2.7,1.0125 -5.5125,2.925 -2.8125,1.9125 -5.5125,4.6125 -2.5875,2.7 -4.8375,5.9625 -15.637504,22.5 -15.637504,46.0125 0,8.325 2.5875,13.3875 2.5875,5.0625 6.8625,5.9625 4.837504,-1.125 12.262504,-6.1875 7.425,-5.0625 16.2,-13.1625 1.125,1.125 1.35,2.3625 -3.2625,4.275 -6.75,8.2125 -3.4875,3.9375 -6.975,7.2 -3.375,3.2625 -6.75,5.7375 -3.2625,2.475 -6.075,3.825 -13.950004,-0.225 -21.150004,-7.9875 -7.2,-7.7625 -7.2,-22.8375 z"
         style="font-style:normal;font-variant:normal;font-weight:normal;font-stretch:normal;font-size:112.5px;font-family:'Kaushan Script';-inkscape-font-specification:'Kaushan Script';fill:#565656;fill-opacity:1;stroke-width:0.9375"
         id="path4547"
         inkscape:connector-curvature="0" />
      <path
         d="m 175.90204,892.44349 q 1.125,0 2.5875,0.45 1.575,0.3375 2.8125,1.0125 1.2375,0.5625 2.025,1.2375 0.9,0.675 0.9,1.2375 -2.25,4.725 -4.1625,9.5625 -1.9125,4.725 -3.2625,9.1125 -1.35,4.3875 -2.1375,8.2125 -0.675,3.825 -0.675,6.6375 0,3.15 0.675,5.2875 0.675,2.025 2.25,2.925 -1.35,0.9 -3.4875,1.4625 -2.1375,0.5625 -3.825,0.5625 -6.075,0 -6.075,-8.325 0,-6.4125 4.275,-17.55 -2.25,5.175 -5.175,9.7875 -2.925,4.5 -5.9625,7.9875 -3.0375,3.4875 -6.1875,5.7375 -3.0375,2.1375 -5.625,2.5875 -4.1625,-0.225 -6.75,-3.9375 -2.5875,-3.825 -2.5875,-9.675 0,-6.3 2.7,-13.275 2.7,-6.975 6.8625,-12.9375 4.275,-5.9625 9.225,-9.9 4.95,-4.05 9.5625,-4.275 1.125,0.3375 2.475,1.35 1.4625,1.0125 2.7,2.3625 1.35,1.35 2.25,2.8125 0.9,1.35 1.0125,2.3625 -4.5,0.675 -9.3375,4.3875 -4.725,3.7125 -8.6625,9 -3.825,5.175 -6.3,11.1375 -2.475,5.9625 -2.475,11.1375 0,2.1375 1.575,2.7 3.2625,-0.675 7.5375,-5.5125 4.275,-4.95 10.35,-15.1875 1.125,-2.025 2.475,-4.5 1.4625,-2.475 2.925,-5.175 1.4625,-2.7 2.8125,-5.4 1.4625,-2.8125 2.7,-5.4 z"
         style="font-style:normal;font-variant:normal;font-weight:normal;font-stretch:normal;font-size:112.5px;font-family:'Kaushan Script';-inkscape-font-specification:'Kaushan Script';fill:#565656;fill-opacity:1;stroke-width:0.9375"
         id="path4549"
         inkscape:connector-curvature="0" />
      <path
         d="m 208.26865,883.33099 q 2.925,0.9 5.5125,4.05 2.5875,3.0375 3.825,6.75 -1.2375,3.0375 -3.825,7.3125 -2.5875,4.275 -5.175,8.775 -2.5875,4.3875 -4.725,8.4375 -2.025,3.9375 -2.3625,6.525 1.8,-1.9125 3.9375,-4.3875 2.25,-2.5875 4.275,-5.0625 2.1375,-2.5875 3.9375,-4.6125 1.8,-2.1375 2.8125,-3.15 2.1375,-2.25 5.0625,-5.175 2.925,-3.0375 6.075,-5.625 3.2625,-2.7 6.525,-4.5 3.2625,-1.9125 5.9625,-1.9125 2.925,0 4.8375,2.025 2.025,1.9125 3.15,4.05 0,0.225 -0.9,0.675 -0.7875,0.3375 -2.3625,2.1375 -1.575,2.025 -3.6,5.625 -1.9125,3.4875 -3.825,7.65 -1.8,4.05 -3.0375,8.325 -1.2375,4.275 -1.2375,7.7625 0,2.8125 0.675,3.6 0.7875,0.7875 2.1375,0.7875 1.2375,0 2.5875,-0.5625 1.35,-0.5625 2.1375,-0.5625 0.45,0.225 0.675,1.0125 0.3375,0.675 0.3375,1.2375 -0.9,0.7875 -2.1375,1.575 -1.2375,0.7875 -2.5875,1.4625 -1.35,0.675 -2.7,1.125 -1.2375,0.45 -2.25,0.45 -3.2625,0 -5.4,-1.0125 -2.025,-0.9 -3.2625,-2.475 -1.125,-1.575 -1.575,-3.7125 -0.45,-2.25 -0.45,-4.725 0,-1.35 0.225,-3.0375 0.225,-1.6875 0.9,-3.9375 0.675,-2.3625 1.9125,-5.5125 1.2375,-3.2625 3.15,-7.7625 -0.225,0 -3.0375,1.575 -2.8125,1.575 -6.075,4.8375 -5.2875,5.0625 -9.5625,10.0125 -4.1625,4.95 -8.55,11.025 -2.475,3.4875 -4.3875,5.85 -1.8,2.475 -3.15,3.2625 -2.3625,-1.35 -3.4875,-3.825 -1.125,-2.3625 -1.6875,-4.95 0,-2.1375 0.5625,-5.4 0.675,-3.2625 1.6875,-7.2 1.125,-4.05 2.7,-8.4375 1.575,-4.3875 3.4875,-8.775 4.275,-9.9 7.7625,-15.525 3.6,-5.625 4.5,-6.075 z"
         style="font-style:normal;font-variant:normal;font-weight:normal;font-stretch:normal;font-size:112.5px;font-family:'Kaushan Script';-inkscape-font-specification:'Kaushan Script';fill:#565656;fill-opacity:1;stroke-width:0.9375"
         id="path4551"
         inkscape:connector-curvature="0" />
      <path
         d="m 275.21318,885.35599 q 2.25,0 5.175,1.35 2.925,1.35 5.175,3.4875 -0.5625,-4.5 -1.4625,-8.4375 -0.7875,-4.05 -2.475,-8.325 -1.575,-4.275 -4.275,-9.3375 -2.7,-5.0625 -6.75,-11.5875 0.3375,-1.0125 1.4625,-2.3625 1.2375,-1.35 2.7,-2.475 1.575,-1.2375 3.15,-2.1375 1.6875,-0.9 3.15,-1.125 3.15,3.4875 5.9625,8.775 2.8125,5.175 4.95,11.25 2.1375,5.9625 3.2625,12.375 1.2375,6.4125 1.2375,12.2625 0,5.85 -1.35,12.0375 -1.2375,6.1875 -3.6,12.15 -2.25,5.85 -5.2875,11.1375 -3.0375,5.2875 -6.6375,9.45 -3.4875,4.1625 -7.3125,6.75 -3.825,2.7 -7.65,3.375 -7.7625,-0.9 -11.925,-5.0625 -4.05,-4.05 -4.05,-11.25 0,-3.825 1.125,-8.325 1.2375,-4.5 3.15,-8.8875 2.025,-4.5 4.6125,-8.6625 2.7,-4.275 5.625,-7.65 3.0375,-3.375 6.075,-5.7375 3.0375,-2.3625 5.9625,-3.0375 z m -11.475,54.1125 q 3.9375,-1.35 7.875,-5.9625 3.9375,-4.6125 7.0875,-10.8 3.15,-6.3 5.0625,-13.3875 2.025,-7.2 2.025,-13.8375 0,-1.9125 0,-2.3625 0,-0.45 -0.1125,-0.9 -2.7,1.125 -5.7375,3.825 -3.0375,2.7 -6.075,6.3 -3.0375,3.4875 -5.7375,7.65 -2.7,4.1625 -4.8375,8.325 -2.1375,4.1625 -3.375,7.9875 -1.2375,3.825 -1.2375,6.75 0,5.625 5.0625,6.4125 z"
         style="font-style:normal;font-variant:normal;font-weight:normal;font-stretch:normal;font-size:112.5px;font-family:'Kaushan Script';-inkscape-font-specification:'Kaushan Script';fill:#565656;fill-opacity:1;stroke-width:0.9375"
         id="path4553"
         inkscape:connector-curvature="0" />
      <path
         d="m 341.76747,920.45599 q -2.5875,8.2125 -5.175,14.9625 -2.5875,6.75 -5.5125,12.375 -2.925,5.7375 -6.3,10.4625 -3.375,4.8375 -7.425,9.1125 -5.175,5.4 -10.6875,8.2125 -5.5125,2.925 -11.025,2.925 -2.8125,0 -5.625,-0.675 -2.7,-0.5625 -5.0625,-1.6875 -2.475,-1.0125 -4.275,-2.475 -1.9125,-1.35 -2.7,-2.925 0,-1.35 1.575,-2.3625 1.35,1.2375 2.25,1.9125 0.9,0.675 1.8,1.125 0.7875,0.45 1.8,0.5625 0.9,0.1125 2.1375,0.1125 6.4125,0 12.4875,-3.825 6.1875,-3.7125 11.5875,-10.6875 5.5125,-6.8625 10.0125,-16.7625 4.5,-9.7875 7.65,-21.9375 -1.4625,2.25 -3.6,5.5125 -2.1375,3.2625 -4.725,6.525 -2.5875,3.15 -5.4,5.7375 -2.7,2.5875 -5.2875,3.4875 -1.8,-0.1125 -3.825,-0.7875 -1.9125,-0.5625 -3.7125,-1.6875 -1.6875,-1.125 -3.0375,-2.7 -1.35,-1.575 -1.8,-3.6 0,-3.2625 0.225,-5.175 0.225,-2.025 0.7875,-4.3875 1.0125,-4.275 2.925,-9.675 2.025,-5.4 4.6125,-10.575 2.7,-5.2875 5.85,-9.7875 3.2625,-4.6125 6.75,-7.2 0.9,0 2.25,0.225 1.35,0.1125 2.8125,0.5625 1.4625,0.45 2.8125,1.125 1.35,0.5625 2.3625,1.575 -1.2375,1.125 -5.4,7.5375 -4.1625,6.4125 -9.225,18.45 -0.5625,1.2375 -1.35,3.6 -0.7875,2.3625 -1.575,4.95 -0.675,2.5875 -1.2375,5.0625 -0.5625,2.475 -0.5625,3.9375 0,0.9 0.225,1.35 0.3375,0.45 0.5625,0.675 2.025,-0.3375 5.4,-3.2625 3.375,-3.0375 7.65,-9.3375 2.7,-4.05 4.95,-7.9875 2.25,-4.05 4.3875,-8.1 2.25,-4.05 4.6125,-8.325 2.3625,-4.275 5.0625,-8.775 1.4625,0 3.15,0.3375 1.6875,0.3375 3.2625,0.9 1.575,0.45 2.7,1.125 1.2375,0.5625 1.8,1.2375 -3.4875,7.425 -6.525,14.5125 -3.0375,7.0875 -5.4,14.5125 z"
         style="font-style:normal;font-variant:normal;font-weight:normal;font-stretch:normal;font-size:112.5px;font-family:'Kaushan Script';-inkscape-font-specification:'Kaushan Script';fill:#565656;fill-opacity:1;stroke-width:0.9375"
         id="path4555"
         inkscape:connector-curvature="0" />
      <path
         d="m 393.21161,893.11849 q -0.1125,2.1375 -0.7875,4.5 -0.5625,2.25 -1.4625,4.1625 -0.9,1.8 -1.9125,3.0375 -1.0125,1.2375 -1.9125,1.2375 -1.2375,-0.1125 -1.4625,-1.6875 0,-0.3375 0.225,-1.0125 0.3375,-0.7875 0.675,-1.6875 0.3375,-0.9 0.5625,-1.8 0.3375,-0.9 0.3375,-1.575 0,-1.575 -0.7875,-2.5875 -0.675,-1.125 -1.9125,-1.125 -4.5,0 -6.8625,5.625 -2.3625,5.625 -2.3625,16.5375 0,1.125 0.1125,1.35 2.3625,-0.1125 4.1625,-0.1125 1.9125,-0.1125 3.7125,-0.1125 0.1125,0.225 0.1125,0.9 0,1.0125 -0.45,1.4625 -2.5875,0.5625 -4.1625,1.0125 -1.4625,0.3375 -2.25,0.675 -0.7875,0.3375 -1.0125,0.7875 -0.1125,0.3375 -0.1125,1.0125 0,0.9 0,1.8 0.1125,0.9 0.1125,2.25 0,9.45 -5.175,15.1875 -5.0625,5.7375 -14.175,6.6375 -1.575,-0.1125 -3.2625,-0.9 -1.6875,-0.7875 -3.2625,-2.025 -1.4625,-1.2375 -2.5875,-2.8125 -1.125,-1.4625 -1.575,-3.0375 0,-4.275 1.8,-8.1 1.8,-3.9375 4.8375,-6.8625 3.15,-3.0375 7.3125,-4.8375 4.275,-1.9125 9.225,-2.25 0,-2.8125 -0.5625,-5.5125 -0.5625,-2.7 -1.2375,-5.175 -0.5625,-2.5875 -1.125,-4.95 -0.5625,-2.475 -0.5625,-4.8375 0,-3.0375 1.2375,-5.9625 1.2375,-3.0375 3.2625,-5.5125 2.025,-2.5875 4.725,-4.3875 2.7,-1.8 5.625,-2.475 1.2375,0.3375 3.2625,2.025 2.1375,1.575 4.1625,3.6 2.025,2.025 3.6,4.1625 1.575,2.025 1.9125,3.375 z m -37.125,51.3 q 2.7,-1.125 5.0625,-3.2625 2.475,-2.1375 4.275,-4.8375 1.8,-2.7 2.8125,-5.7375 1.125,-3.0375 1.125,-5.9625 -2.25,0.3375 -4.95,2.1375 -2.7,1.6875 -5.0625,4.1625 -2.3625,2.3625 -3.9375,4.95 -1.575,2.5875 -1.575,4.5 0,2.475 2.25,4.05 z"
         style="font-style:normal;font-variant:normal;font-weight:normal;font-stretch:normal;font-size:112.5px;font-family:'Kaushan Script';-inkscape-font-specification:'Kaushan Script';fill:#565656;fill-opacity:1;stroke-width:0.9375"
         id="path4557"
         inkscape:connector-curvature="0" />
      <path
         d="m 393.17822,935.98099 q 0,-3.9375 0.7875,-9.225 0.7875,-5.4 2.25,-11.475 1.575,-6.075 3.6,-12.7125 2.1375,-6.6375 4.725,-13.275 2.25,-5.9625 5.175,-12.0375 3.0375,-6.075 6.525,-11.925 3.4875,-5.85 7.2,-11.1375 3.825,-5.2875 7.65,-9.675 1.8,0 3.825,0.45 2.1375,0.45 4.05,1.2375 2.025,0.675 3.6,1.6875 1.6875,1.0125 2.7,2.025 -8.4375,8.6625 -15.1875,17.55 -6.75,8.775 -10.6875,16.5375 -2.1375,4.275 -3.9375,7.9875 -1.6875,3.7125 -3.15,7.425 -1.4625,3.6 -2.7,7.3125 -1.125,3.6 -2.1375,7.65 21.6,-27.5625 32.0625,-27.5625 2.925,0 6.3,1.9125 3.375,1.9125 5.9625,5.175 -3.4875,3.825 -7.2,9.225 -3.7125,5.4 -6.8625,10.9125 -3.0375,5.4 -5.0625,10.125 -1.9125,4.6125 -1.9125,6.8625 0,1.125 0.3375,1.575 0.3375,0.3375 1.4625,0.3375 1.6875,0 2.7,-0.45 1.0125,-0.45 1.2375,-0.45 0.5625,0.9 0.675,1.2375 0.1125,0.3375 0.1125,0.5625 0,0.45 -1.35,1.35 -1.35,0.7875 -3.2625,1.6875 -1.8,0.7875 -3.6,1.4625 -1.8,0.675 -2.7,0.675 -1.125,0 -2.25,-0.675 -1.125,-0.5625 -2.025,-1.575 -0.7875,-1.0125 -1.35,-2.25 -0.45,-1.2375 -0.45,-2.5875 0,-1.6875 0.9,-4.95 1.0125,-3.375 2.7,-7.7625 1.6875,-4.5 4.05,-9.7875 2.3625,-5.2875 5.0625,-10.8 0,-0.45 -0.45,-0.45 -0.3375,0 -1.8,0.9 -1.35,0.9 -2.5875,1.8 -4.05,3.0375 -8.2125,7.5375 -4.05,4.3875 -7.9875,9.675 -3.825,5.2875 -7.3125,11.25 -3.375,5.85 -5.85,11.8125 -0.3375,0.7875 -1.0125,1.4625 -0.675,0.675 -1.125,0.675 -0.3375,0 -1.0125,-0.7875 -0.5625,-0.7875 -1.125,-2.025 -0.45,-1.125 -0.9,-2.3625 -0.45,-1.2375 -0.45,-2.1375 z"
         style="font-style:normal;font-variant:normal;font-weight:normal;font-stretch:normal;font-size:112.5px;font-family:'Kaushan Script';-inkscape-font-specification:'Kaushan Script';fill:#565656;fill-opacity:1;stroke-width:0.9375"
         id="path4559"
         inkscape:connector-curvature="0" />
      <path
         d="m 464.79325,941.83099 q -6.4125,-0.675 -10.2375,-5.625 -3.825,-4.95 -3.825,-12.6 0,-4.5 1.35,-9.3375 1.35,-4.8375 3.825,-9.3375 2.475,-4.6125 5.85,-8.6625 3.375,-4.05 7.3125,-6.975 6.1875,-4.6125 11.5875,-4.6125 3.6,1.9125 7.0875,7.9875 0.5625,0 1.0125,0 0.45,-0.1125 1.0125,-0.1125 5.9625,0 5.9625,10.575 0,7.0875 -2.3625,13.5 -2.25,6.3 -6.4125,11.475 -4.05,5.175 -9.7875,8.775 -5.625,3.4875 -12.375,4.95 z m 5.7375,-35.4375 q -1.9125,2.5875 -3.6,5.625 -1.6875,3.0375 -2.925,6.1875 -1.2375,3.0375 -1.9125,5.9625 -0.675,2.8125 -0.675,5.0625 0,2.7 0.9,5.175 0.9,2.475 2.025,2.8125 5.0625,-1.125 9.225,-4.1625 4.275,-3.15 7.3125,-7.7625 3.15,-4.6125 4.8375,-10.4625 1.8,-5.85 1.8,-12.4875 0,-2.925 -0.3375,-4.6125 -0.3375,-1.6875 -1.125,-2.925 -4.95,1.4625 -8.8875,4.725 -3.825,3.2625 -6.6375,6.8625 z"
         style="font-style:normal;font-variant:normal;font-weight:normal;font-stretch:normal;font-size:112.5px;font-family:'Kaushan Script';-inkscape-font-specification:'Kaushan Script';fill:#565656;fill-opacity:1;stroke-width:0.9375"
         id="path4561"
         inkscape:connector-curvature="0" />
      <path
         d="m 492.96396,975.13099 q -1.575,-0.45 -1.8,-3.375 -0.45,-1.4625 -0.675,-3.4875 -0.1125,-2.025 -0.1125,-4.6125 0,-2.3625 0.7875,-6.525 0.7875,-4.05 2.1375,-9.225 1.4625,-5.175 3.4875,-11.1375 2.025,-6.075 4.5,-12.2625 3.0375,-7.7625 5.2875,-13.3875 2.25,-5.7375 3.7125,-9.9 1.575,-4.1625 2.475,-6.8625 1.0125,-2.7 1.575,-4.6125 0.45,-1.35 1.35,-3.2625 0.9,-1.9125 2.025,-3.825 1.2375,-2.025 2.475,-3.7125 1.2375,-1.8 2.25,-2.7 3.9375,0.5625 7.425,2.025 3.4875,1.4625 4.275,2.8125 -1.575,1.4625 -3.6,4.6125 -2.025,3.0375 -3.9375,6.75 -1.9125,3.6 -3.4875,7.425 -1.575,3.825 -2.3625,6.75 1.125,-1.9125 2.925,-4.1625 1.8,-2.25 5.5125,-6.1875 4.1625,-4.275 7.7625,-6.525 3.7125,-2.3625 6.4125,-2.3625 4.275,0 6.975,2.3625 2.8125,2.3625 2.8125,6.075 0,8.1 -2.7,16.0875 -2.7,7.875 -7.7625,14.2875 -1.9125,2.475 -4.5,4.725 -2.5875,2.25 -5.4,4.05 -2.8125,1.6875 -5.5125,2.7 -2.7,1.0125 -4.8375,1.0125 -2.025,0 -3.6,-0.7875 -1.4625,-0.9 -2.025,-2.1375 4.3875,-2.5875 8.55,-7.2 4.1625,-4.6125 7.65,-10.575 3.6,-6.075 6.1875,-13.05 2.7,-6.975 4.05,-14.175 -4.275,2.25 -7.7625,4.95 -3.375,2.5875 -6.75,6.8625 -4.05,4.95 -6.4125,7.9875 -2.3625,3.0375 -3.9375,5.175 -1.4625,2.1375 -2.475,4.05 -0.9,1.8 -2.025,4.5 -1.575,3.6 -3.7125,9.5625 -2.025,5.85 -4.275,13.1625 -2.1375,7.3125 -4.3875,15.525 -2.1375,8.325 -4.1625,16.5375 -1.2375,-0.225 -2.1375,-1.8 -0.9,-1.0125 -1.35,-1.4625 -0.3375,-0.45 -0.9,-0.675 z"
         style="font-style:normal;font-variant:normal;font-weight:normal;font-stretch:normal;font-size:112.5px;font-family:'Kaushan Script';-inkscape-font-specification:'Kaushan Script';fill:#565656;fill-opacity:1;stroke-width:0.9375"
         id="path4563"
         inkscape:connector-curvature="0" />
    </g>
  </g>
</svg>
